<?xml version="1.0" standalone="no"?><!DOCTYPE svg PUBLIC "-//W3C//DTD SVG 1.1//EN" "http://www.w3.org/Graphics/SVG/1.1/DTD/svg11.dtd"><svg t="1775563327156" class="icon" viewBox="0 0 1024 1024" version="1.1" xmlns="http://www.w3.org/2000/svg" p-id="1909" width="128" height="128" xmlns:xlink="http://www.w3.org/1999/xlink"><path d="M512 1024C230.4 1024 0 793.6 0 512S230.4 0 512 0s512 230.4 512 512-230.4 512-512 512z m0-938.666667C275.911111 85.333333 85.333333 275.911111 85.333333 512s190.577778 426.666667 426.666667 426.666667 426.666667-190.577778 426.666667-426.666667S748.088889 85.333333 512 85.333333z" fill="#707070" p-id="1910"></path><path d="M378.311111 725.333333V401.066667l82.488889 324.266666h99.555556l85.333333-324.266666v324.266666h108.088889v-426.666666h-173.511111L512 557.511111l-68.266667-258.844444H270.222222v426.666666h108.088889z" fill="#707070" p-id="1911"></path></svg>